<?xml version="1.0" standalone="no"?>
<!DOCTYPE svg PUBLIC "-//W3C//DTD SVG 20010904//EN"
 "http://www.w3.org/TR/2001/REC-SVG-20010904/DTD/svg10.dtd">
<svg version="1.0" xmlns="http://www.w3.org/2000/svg"
 width="300.000000pt" height="272.000000pt" viewBox="0 0 300.000000 272.000000"
 preserveAspectRatio="xMidYMid meet">
<metadata>
Created by potrace 1.10, written by Peter Selinger 2001-2011
</metadata>
<g transform="translate(0.000000,272.000000) scale(0.100000,-0.100000)"
fill="#000000" stroke="none">
<path d="M347 2613 c4 -11 2 -14 -5 -9 -8 4 -10 2 -6 -8 3 -8 12 -12 20 -9 8
3 14 1 14 -5 0 -12 -18 -11 -39 3 -10 5 -16 4 -19 -3 -2 -7 -9 -9 -14 -6 -7 4
-8 2 -4 -4 7 -12 78 -17 89 -6 8 9 -13 52 -29 58 -9 3 -11 0 -7 -11z"/>
<path d="M1181 2578 c-2 -27 10 -48 28 -49 10 0 11 -2 4 -6 -21 -8 -15 -23 8
-23 16 0 19 -3 11 -13 -7 -8 -7 -18 -2 -27 6 -9 5 -17 -2 -21 -7 -4 -3 -11 11
-18 21 -12 29 -41 11 -41 -5 0 -7 -7 -4 -15 4 -8 14 -15 23 -15 14 0 14 -2 1
-10 -12 -8 -12 -10 5 -10 16 0 17 -2 5 -10 -12 -8 -12 -10 3 -16 12 -4 16 -13
12 -25 -4 -11 -2 -19 3 -19 6 0 9 -8 8 -17 -3 -19 14 -54 24 -48 3 2 6 -8 6
-21 2 -30 22 -56 38 -48 6 3 2 -2 -9 -11 -13 -10 -16 -18 -9 -23 6 -4 15 -18
19 -32 11 -36 36 -71 45 -65 5 3 8 -4 7 -15 -1 -11 -6 -20 -12 -20 -5 -1 2 -8
18 -16 30 -16 37 -29 10 -20 -17 6 -17 5 0 -8 9 -7 17 -23 17 -34 0 -12 11
-33 26 -47 14 -14 23 -29 20 -34 -3 -5 1 -14 9 -21 8 -7 15 -20 15 -30 0 -10
6 -23 13 -29 8 -6 20 -29 27 -51 8 -25 19 -40 30 -40 27 0 31 12 13 33 -10 10
-17 21 -15 23 6 11 0 25 -21 46 -13 13 -23 34 -22 46 1 12 -5 32 -14 45 -26
37 -62 110 -67 137 -3 14 -13 32 -24 42 -11 9 -20 23 -20 31 0 8 -7 20 -15 27
-9 7 -14 19 -11 27 3 7 1 13 -5 13 -6 0 -8 4 -4 9 3 6 -4 25 -15 43 -11 18
-20 43 -20 55 0 12 -7 29 -16 37 -8 9 -12 21 -8 27 4 7 3 9 -4 6 -6 -5 -13 8
-17 32 -4 22 -13 42 -22 45 -8 4 -13 13 -9 21 3 8 -2 22 -11 31 -12 12 -13 18
-4 23 8 5 6 13 -9 26 -11 10 -17 21 -15 25 6 10 -23 67 -31 60 -3 -3 -12 9
-19 25 -8 18 -14 23 -14 13z"/>
<path d="M1130 2554 c13 -16 13 -17 -2 -12 -19 8 -92 -57 -83 -73 3 -5 -1 -6
-9 -3 -10 4 -16 1 -16 -9 0 -9 -9 -19 -20 -22 -15 -5 -19 -12 -15 -26 4 -11 2
-19 -4 -19 -6 0 -11 6 -12 13 0 6 -4 3 -8 -8 -5 -11 -8 -34 -7 -52 1 -17 -3
-29 -7 -26 -5 3 -6 -4 -2 -16 3 -11 2 -21 -3 -21 -10 0 -26 -55 -23 -77 1 -7
-3 -13 -9 -13 -5 0 -10 -7 -10 -15 0 -8 -5 -15 -11 -15 -6 0 -9 -6 -7 -12 4
-12 -1 -22 -33 -57 -8 -9 -13 -23 -11 -29 2 -7 -1 -12 -8 -12 -6 0 -9 -3 -6
-8 2 -4 -20 -34 -50 -67 -30 -32 -54 -63 -54 -69 0 -5 -3 -6 -7 -3 -12 13 -39
-60 -37 -102 0 -23 -3 -41 -7 -41 -4 0 -11 -21 -14 -47 -4 -27 -10 -59 -15
-73 -8 -24 -53 -169 -55 -180 -1 -3 -7 -18 -13 -33 -7 -16 -12 -33 -12 -38 0
-5 -5 -9 -11 -9 -6 0 -9 -7 -5 -15 3 -9 0 -15 -9 -15 -8 0 -21 -12 -29 -27 -8
-16 -32 -47 -55 -70 -23 -23 -41 -45 -41 -50 0 -4 -9 -14 -20 -21 -11 -7 -20
-19 -20 -27 0 -8 -3 -15 -7 -15 -16 0 -101 -117 -108 -148 -3 -17 -10 -32 -15
-32 -9 0 -16 -30 -34 -160 -5 -30 -14 -82 -22 -115 -7 -33 -16 -73 -19 -90 -4
-16 -9 -64 -11 -105 -2 -41 -6 -91 -8 -110 -3 -19 -8 -62 -12 -95 -8 -71 -19
-95 -41 -95 -12 0 -14 -3 -7 -10 7 -7 89 -12 205 -15 107 -2 289 -8 404 -14
318 -17 458 -19 593 -12 68 3 126 2 129 -2 5 -8 363 -2 608 10 77 3 194 6 260
5 66 -1 189 -2 274 -3 84 0 178 -4 208 -9 39 -7 61 -6 76 3 12 7 23 12 24 13
5 1 -22 64 -27 64 -3 0 -6 -10 -7 -21 -1 -12 -4 -23 -6 -26 -13 -13 -167 1
-167 15 -1 12 -40 55 -45 50 -3 -3 1 -18 10 -34 14 -27 13 -29 -6 -36 -41 -15
-82 5 -107 52 -12 23 -21 51 -20 61 2 10 -1 18 -7 19 -17 1 -17 -50 -1 -75 23
-36 20 -55 -9 -55 -14 0 -25 5 -25 11 0 8 -5 7 -15 -1 -13 -11 -20 -11 -40 0
-14 7 -25 16 -25 20 0 3 -7 15 -15 26 -13 17 -14 16 -8 -20 6 -38 6 -39 -21
-32 -32 8 -85 45 -87 60 -1 6 -1 20 0 31 0 14 -3 11 -10 -9 -9 -21 -8 -30 1
-36 6 -4 10 -15 8 -23 -2 -13 -17 -6 -65 31 -52 40 -194 153 -254 202 -10 8
-40 33 -66 55 -26 21 -79 74 -118 117 -38 43 -91 102 -117 131 -26 29 -50 60
-54 70 -3 9 -10 17 -16 17 -5 0 -8 7 -4 15 3 9 0 15 -9 15 -8 0 -15 7 -15 15
0 7 -6 18 -13 22 -18 11 -97 123 -97 138 0 7 -10 23 -21 36 -12 13 -30 42 -41
64 -10 22 -28 56 -40 75 -25 42 -58 135 -58 163 0 16 2 17 15 7 9 -7 13 -15
11 -17 -3 -3 6 -17 19 -31 13 -14 31 -39 41 -56 24 -45 182 -175 267 -219 39
-21 79 -46 88 -55 9 -9 40 -63 69 -119 29 -57 57 -103 61 -103 5 0 9 -7 9 -16
0 -8 5 -12 11 -8 7 4 9 0 5 -13 -6 -19 41 -111 78 -152 8 -9 27 -40 43 -68 16
-29 40 -66 53 -83 51 -64 141 -163 165 -182 42 -33 28 0 -23 55 -57 61 -142
170 -142 181 0 4 -18 33 -40 65 -22 31 -40 61 -40 66 0 5 -8 18 -19 29 -24 27
-172 321 -170 339 1 16 -62 68 -73 61 -7 -4 -8 -3 -4 4 7 11 -35 35 -52 30 -9
-3 -61 30 -89 56 -11 12 -36 32 -54 46 -19 14 -43 34 -54 46 -96 101 -126 137
-156 186 -39 65 -66 85 -54 41 4 -16 8 -53 11 -83 2 -30 6 -71 9 -90 3 -19 10
-89 15 -155 5 -66 11 -128 14 -137 2 -9 -1 -19 -8 -22 -8 -3 -7 -7 3 -14 7 -5
11 -14 8 -19 -3 -5 0 -34 8 -63 8 -29 12 -56 10 -60 -3 -4 2 -52 11 -106 8
-54 16 -127 19 -161 2 -34 8 -70 13 -80 5 -10 12 -55 16 -100 3 -45 13 -94 21
-110 8 -15 15 -45 15 -67 0 -35 -2 -38 -22 -31 -37 12 -296 16 -303 5 -4 -6
-14 -2 -24 8 -23 21 -45 95 -31 100 6 2 10 8 10 13 0 4 -7 6 -15 3 -8 -4 -17
1 -21 10 -3 9 -11 16 -16 16 -6 0 -17 8 -24 18 -12 16 -13 16 -14 -4 0 -12 11
-29 25 -38 22 -15 45 -68 45 -108 0 -15 -11 -16 -92 -13 -51 3 -149 7 -217 9
-77 3 -127 9 -131 16 -4 7 -13 37 -21 68 -10 43 -10 57 -1 60 15 5 16 22 1 22
-6 0 -25 10 -42 22 -24 17 -28 18 -18 4 13 -15 13 -19 1 -26 -12 -7 -12 -10 2
-15 16 -6 58 -100 58 -129 0 -11 -22 -13 -107 -9 -60 2 -145 4 -190 4 -45 0
-85 4 -87 8 -3 5 1 43 9 86 8 42 17 118 19 168 3 51 9 117 15 147 5 30 16 93
24 140 7 47 19 95 25 107 7 12 12 33 12 47 0 14 5 26 11 26 6 0 8 8 4 19 -3
11 -1 22 5 26 6 3 17 22 24 40 8 19 26 44 40 56 14 13 26 27 26 33 0 6 25 37
55 68 30 31 55 60 55 63 0 3 11 18 25 33 14 15 25 32 25 39 0 6 10 20 23 30
12 10 32 36 43 58 27 50 71 194 79 258 7 54 20 59 57 23 36 -37 68 -40 103
-11 20 16 25 25 14 25 -8 0 -21 -6 -27 -12 -18 -18 -71 -16 -77 2 -3 9 -19 21
-36 27 -26 10 -30 15 -21 26 7 8 9 17 5 20 -3 4 -1 7 6 7 7 0 11 8 10 18 -2 9
1 28 6 42 5 14 9 30 9 35 1 14 97 135 108 135 4 0 8 6 8 13 0 7 9 20 20 30 12
10 17 23 13 33 -4 12 -3 15 5 10 7 -4 12 -1 12 7 0 8 9 26 20 40 11 14 20 33
20 42 0 14 3 15 14 6 17 -15 24 -5 22 32 -1 15 1 27 5 27 3 0 5 12 3 27 -1 15
0 32 4 38 8 13 12 33 14 63 0 13 7 26 14 29 8 3 14 9 14 14 0 6 9 20 20 32 11
12 32 36 46 52 14 17 28 29 30 28 2 -2 4 0 3 3 0 4 10 12 23 18 28 14 30 39 3
45 -17 3 -18 2 -5 -15z m153 -1359 c-3 -8 1 -15 8 -15 7 0 9 -3 6 -6 -4 -4 2
-19 13 -34 10 -15 32 -54 47 -86 28 -59 90 -152 148 -223 17 -20 38 -47 47
-61 51 -82 370 -400 418 -418 8 -3 36 -21 62 -41 25 -20 79 -58 118 -86 l71
-50 -38 -3 c-22 -2 -39 1 -41 8 -2 6 -15 23 -28 38 l-24 27 16 -39 15 -39 -45
5 c-32 4 -55 14 -73 32 -30 31 -42 27 -19 -6 23 -32 20 -37 -16 -35 -37 2 -57
21 -58 54 0 12 -4 24 -8 27 -5 3 -8 -14 -8 -37 1 -41 1 -42 -34 -42 -30 0 -38
5 -52 34 -9 19 -24 41 -33 50 -13 14 -15 13 -15 -3 0 -10 9 -34 21 -53 l21
-34 -61 3 c-35 2 -62 -1 -65 -7 -7 -22 -21 9 -31 72 -6 37 -16 68 -21 70 -7 2
-8 -15 -1 -57 7 -43 7 -64 -1 -72 -18 -18 -62 1 -84 37 -11 19 -24 35 -29 35
-16 0 -10 -26 11 -45 38 -35 26 -47 -37 -39 -58 6 -67 10 -69 22 0 4 -4 14 -7
22 -8 19 -34 167 -43 242 -3 32 -12 75 -19 95 -7 21 -12 56 -10 78 1 22 -2 48
-7 58 -5 10 -11 50 -14 89 -2 39 -8 96 -13 127 -5 31 -9 63 -10 71 0 14 -2 34
-20 188 -4 34 -5 64 -3 67 9 9 21 -6 15 -20z"/>
<path d="M1168 2544 c-4 -4 -4 -12 0 -18 11 -16 8 -90 -3 -98 -6 -5 -4 -12 5
-18 9 -6 10 -10 3 -10 -9 0 -9 -8 -1 -32 7 -21 8 -33 1 -35 -6 -2 -7 -21 -3
-48 5 -30 3 -45 -4 -45 -7 0 -7 -3 -1 -8 12 -8 14 -72 2 -72 -4 0 -5 -6 0 -12
11 -19 12 -37 2 -44 -5 -3 -7 -10 -3 -15 3 -5 8 -33 10 -62 3 -29 7 -64 8 -79
2 -16 0 -28 -4 -28 -4 0 -4 -19 0 -42 5 -23 6 -48 3 -55 -3 -7 0 -20 6 -27 7
-8 8 -17 3 -20 -5 -3 -7 -17 -4 -31 4 -22 1 -25 -24 -26 l-29 -1 31 -10 c25
-8 31 -15 31 -41 2 -69 15 -172 23 -181 16 -16 29 5 27 44 -1 23 -4 34 -9 27
-4 -7 -7 6 -6 28 0 22 -2 58 -6 80 -11 70 -18 167 -18 268 -1 53 -5 97 -10 97
-5 0 -4 8 1 19 6 10 9 20 7 22 -2 2 -6 17 -10 32 -5 21 -4 27 5 21 9 -5 10 0
5 20 -3 14 -9 38 -12 52 -5 18 -3 25 4 20 10 -6 8 39 -3 72 -2 6 1 12 7 12 7
0 7 4 -1 14 -9 11 -9 15 1 20 8 4 9 8 3 11 -6 3 -9 30 -8 60 2 37 -1 55 -9 55
-6 0 -8 3 -5 6 4 4 14 1 24 -7 16 -13 16 -12 1 16 -9 17 -20 40 -25 53 -4 13
-12 20 -15 16z"/>
<path d="M560 2199 c0 -5 -5 -7 -11 -4 -5 4 -24 -8 -41 -26 -26 -27 -33 -30
-42 -17 -11 15 -68 38 -92 38 -8 0 -11 -6 -7 -16 3 -8 12 -13 19 -10 22 9 42
-4 48 -30 4 -14 11 -22 17 -19 6 4 8 -2 4 -17 -5 -19 -2 -24 14 -24 16 0 21 7
21 28 0 15 5 28 11 28 5 0 8 4 5 8 -6 9 21 35 47 45 15 6 25 27 12 27 -3 0 -5
-5 -5 -11z"/>
<path d="M944 2134 c-6 -3 -10 -18 -8 -34 2 -17 0 -30 -5 -30 -5 0 -9 -10 -8
-22 0 -13 -3 -48 -7 -78 -9 -64 -15 -130 -21 -220 -4 -73 -23 -150 -37 -150
-4 0 -14 -12 -20 -27 -7 -16 -23 -38 -35 -50 -13 -12 -23 -25 -23 -28 0 -3 -9
-18 -20 -33 -11 -15 -21 -39 -22 -54 -1 -16 -5 -28 -9 -28 -4 0 -9 -21 -11
-47 -3 -27 -8 -56 -12 -65 -6 -13 -4 -18 6 -18 18 0 37 61 52 163 1 9 8 23 14
29 7 7 12 17 12 23 0 7 9 20 20 30 11 10 20 24 20 31 0 7 9 16 20 19 11 3 20
12 20 20 0 7 7 21 16 30 9 8 13 22 10 30 -3 8 0 14 7 12 7 -1 13 13 15 36 2
21 10 41 17 43 12 5 12 9 0 28 -8 13 -13 25 -11 27 3 3 8 56 11 119 7 137 10
160 18 180 3 8 5 27 4 42 -1 16 -2 28 -2 27 0 0 -5 -3 -11 -5z"/>
<path d="M415 1777 c9 -41 31 -65 46 -50 14 14 7 59 -9 56 -6 -2 -12 1 -12 6
0 5 -7 12 -16 15 -13 5 -14 1 -9 -27z"/>
<path d="M960 1750 c0 -18 90 -80 111 -77 21 3 60 33 53 40 -4 4 -19 -2 -34
-13 -26 -19 -26 -19 -56 5 -16 13 -33 24 -38 25 -5 0 -15 8 -22 18 -11 14 -13
14 -14 2z"/>
<path d="M1613 1623 c-16 -6 -17 -23 -2 -23 13 0 33 -21 37 -40 2 -8 13 -25
24 -37 12 -13 18 -23 13 -23 -4 0 -2 -8 7 -17 8 -10 19 -30 26 -45 6 -16 16
-28 22 -28 6 0 9 -4 5 -9 -3 -6 14 -34 37 -63 24 -29 48 -65 55 -79 6 -15 26
-43 43 -63 18 -20 29 -36 24 -36 -4 0 4 -13 19 -28 15 -16 24 -31 20 -35 -3
-4 1 -7 11 -7 10 0 21 -12 27 -30 12 -32 16 -35 37 -22 15 10 7 38 -14 46 -8
3 -14 12 -14 21 0 8 -5 15 -11 15 -5 0 -7 5 -3 12 4 6 3 8 -4 4 -6 -4 -18 8
-28 30 -9 19 -32 47 -50 62 -19 15 -29 29 -23 33 7 4 0 17 -15 34 -14 15 -26
31 -26 34 0 3 -13 22 -30 40 -16 19 -37 51 -47 70 -10 20 -31 56 -48 81 -16
25 -30 49 -30 53 0 4 -5 11 -11 15 -6 4 -13 15 -17 25 -7 17 -12 19 -34 10z"/>
<path d="M1130 1279 c0 -16 -29 -41 -40 -34 -5 3 -10 -1 -10 -10 0 -8 -7 -18
-15 -22 -17 -6 -59 -79 -61 -103 -1 -20 -23 -96 -42 -146 -11 -28 -26 -45 -46
-54 -37 -16 -67 -52 -82 -97 -14 -40 -3 -44 17 -5 8 15 21 32 29 38 8 7 28 23
44 37 l29 26 57 -44 c31 -24 61 -49 67 -57 25 -30 53 -90 53 -112 0 -27 48
-126 61 -126 15 0 10 20 -12 51 -11 16 -18 33 -15 38 6 9 -14 74 -36 121 -16
34 -69 90 -85 90 -7 0 -13 7 -13 16 0 10 -6 14 -15 10 -9 -3 -15 0 -15 8 0 8
-5 16 -12 18 -9 3 -6 22 9 69 11 35 27 86 34 114 10 34 27 63 56 93 38 38 66
92 49 92 -3 0 -6 -5 -6 -11z"/>
<path d="M699 1223 c-8 -107 -7 -163 2 -163 6 0 9 6 6 13 -2 6 -1 19 4 28 5 9
10 36 13 60 2 24 7 52 11 62 5 13 2 17 -14 17 -13 0 -21 -7 -22 -17z"/>
<path d="M624 1147 c-72 -51 -114 -126 -114 -202 0 -54 17 -60 25 -7 15 83 26
109 70 155 25 26 50 47 54 47 5 0 11 7 15 15 8 21 -14 18 -50 -8z"/>
<path d="M2020 1030 c-12 -8 -11 -12 7 -32 11 -13 24 -33 28 -45 3 -13 11 -23
16 -23 5 0 9 -4 9 -10 0 -5 15 -27 34 -47 19 -21 59 -65 89 -98 30 -33 58 -68
64 -78 12 -23 206 -230 308 -328 88 -85 201 -179 216 -179 27 0 -2 31 -123
132 -68 57 -288 275 -288 286 0 6 -7 12 -15 16 -8 3 -15 12 -15 20 0 8 -13 26
-30 39 -16 14 -30 30 -30 36 0 6 -9 16 -20 23 -11 7 -20 17 -20 23 0 5 -17 29
-38 52 -20 23 -50 60 -66 82 -16 22 -34 37 -39 34 -6 -3 -7 -1 -3 6 4 6 0 14
-8 17 -9 3 -16 11 -16 18 -1 6 -11 23 -23 38 -16 20 -26 25 -37 18z"/>
<path d="M430 729 c0 -5 4 -7 10 -4 5 3 7 0 4 -9 -3 -8 -12 -12 -20 -9 -20 7
-17 -4 6 -29 11 -12 17 -24 14 -27 -3 -3 -12 3 -20 13 -20 28 -30 11 -10 -19
11 -16 12 -25 5 -25 -6 0 0 -9 14 -20 28 -22 37 -25 37 -10 0 6 -7 10 -15 10
-8 0 -15 5 -15 11 0 6 6 9 14 6 8 -3 16 0 18 8 2 10 8 12 17 6 10 -6 10 -13 2
-29 -9 -17 -7 -21 16 -27 18 -4 23 -9 15 -17 -16 -16 5 -57 31 -58 12 0 8 30
-9 55 -9 13 -13 29 -9 35 3 5 1 10 -4 10 -6 0 -11 7 -11 15 0 8 -5 15 -11 15
-6 0 -9 7 -6 15 4 8 2 17 -3 20 -6 4 -10 17 -10 31 0 17 -8 27 -26 34 -32 12
-34 12 -34 -1z"/>
<path d="M400 590 c-8 -6 -11 -10 -7 -10 4 0 3 -9 -2 -19 -8 -14 -7 -22 4 -31
8 -7 12 -16 9 -21 -3 -5 -2 -9 3 -10 4 0 15 -2 23 -4 58 -15 65 -16 45 -6 -28
13 -52 44 -47 61 5 13 3 13 -11 1 -15 -11 -17 -11 -17 1 0 8 5 19 12 26 15 15
7 24 -12 12z"/>
<path d="M920 575 c0 -8 5 -15 10 -15 6 0 10 -6 10 -14 0 -8 6 -17 13 -19 6
-3 2 -6 -10 -6 -12 -1 -23 4 -25 11 -4 12 -28 3 -28 -11 0 -4 14 -17 31 -30
29 -22 31 -22 44 -4 13 17 14 17 15 1 0 -28 17 -21 23 8 4 20 0 28 -15 32 -10
2 -17 10 -14 17 4 13 -27 45 -44 45 -6 0 -10 -7 -10 -15z"/>
<path d="M517 493 c-14 -13 -6 -21 26 -27 24 -5 29 -9 17 -16 -12 -8 -12 -10
2 -15 9 -4 14 -13 12 -20 -3 -7 3 -18 13 -23 16 -9 18 -5 18 39 0 30 -5 51
-12 54 -7 2 -13 0 -13 -5 0 -15 -21 -12 -40 5 -9 8 -20 12 -23 8z"/>
<path d="M927 455 c18 -14 30 -32 27 -39 -8 -20 44 -56 79 -56 39 0 26 14 -16
16 -37 2 -60 29 -47 55 14 25 13 29 -11 29 -11 0 -30 5 -42 11 -13 6 -8 0 10
-16z"/>
<path d="M890 422 c0 -10 5 -23 12 -30 9 -9 8 -12 -6 -12 -23 0 -15 -22 10
-26 16 -3 19 3 18 30 -1 18 -4 38 -8 44 -11 18 -26 14 -26 -6z"/>
<path d="M386 419 c3 -6 17 -8 31 -4 16 4 22 2 18 -5 -3 -5 -2 -10 3 -10 6 0
12 7 16 15 4 12 -3 15 -35 15 -26 0 -38 -4 -33 -11z"/>
<path d="M387 393 c-4 -3 8 -17 25 -30 38 -27 38 -27 38 -8 0 8 -5 15 -12 15
-6 0 -19 7 -28 15 -9 8 -20 12 -23 8z"/>
<path d="M528 378 c-4 -10 -3 -20 2 -23 12 -7 60 5 60 15 0 17 -20 21 -26 6
-8 -21 -22 -20 -26 2 -3 16 -4 16 -10 0z"/>
<path d="M974 328 c-4 -6 0 -14 7 -19 19 -12 42 -11 34 1 -3 6 3 10 14 10 12
0 21 4 21 9 0 12 -69 11 -76 -1z"/>
<path d="M2821 278 c0 -7 4 -22 9 -33 8 -18 9 -18 9 -2 1 14 5 16 20 7 28 -14
41 -13 41 5 0 16 -5 19 -52 29 -19 4 -28 2 -27 -6z"/>
</g>
</svg>
